<svg width="128" height="128" viewBox="0 0 128 128" fill="none" xmlns="http://www.w3.org/2000/svg">
    <path d="M119.045 64C121.782 64 124.021 61.7777 123.796 59.0504C122.958 48.9285 119.561 39.1555 113.888 30.6658C107.295 20.7988 97.9246 13.1085 86.961 8.56723C75.9974 4.02597 63.9334 2.83777 52.2946 5.15288C40.6557 7.468 29.9647 13.1824 21.5736 21.5736C13.1824 29.9647 7.468 40.6557 5.15288 52.2946C2.83777 63.9334 4.02597 75.9974 8.56723 86.961C13.1085 97.9246 20.7988 107.295 30.6658 113.888C39.1555 119.561 48.9285 122.958 59.0504 123.796C61.7777 124.021 64 121.782 64 119.045V119.045C64 116.308 61.7761 114.115 59.0529 113.845C50.8937 113.035 43.0309 110.232 36.1715 105.648C27.9342 100.144 21.514 92.3214 17.7228 83.1686C13.9317 74.0159 12.9397 63.9444 14.8724 54.2279C16.8052 44.5114 21.5758 35.5862 28.581 28.581C35.5862 21.5758 44.5114 16.8052 54.2279 14.8724C63.9444 12.9397 74.0159 13.9317 83.1686 17.7228C92.3214 21.514 100.144 27.9342 105.648 36.1715C110.232 43.0309 113.035 50.8937 113.845 59.0529C114.115 61.7761 116.308 64 119.045 64V64Z" fill="#E0E9FB"/>
    <path d="M64.5 39V62.9532C64.5 63.2939 64.3265 63.6112 64.0397 63.7951L45 76" stroke="#C8D0E0" stroke-width="10" stroke-linecap="round"/>
    <path d="M101.046 80.7127C103.78 77.979 108.212 77.979 110.946 80.7127V80.7127C113.68 83.4464 113.68 87.8785 110.946 90.6122L90.8488 110.709C89.6426 111.916 88.0373 112.64 86.3347 112.746L78.9845 113.204C78.6843 113.223 78.4356 112.974 78.4543 112.674L78.9126 105.324C79.0188 103.621 79.7431 102.016 80.9493 100.81L101.046 80.7127Z" stroke="#A4AAB8" stroke-width="7"/>
</svg>